# xmcd
#
# Track frame offsets: 
#        150
#        28070
#        49048
#        63052
#        92151
#        118324
#        139680
#        158903
#        180255
#
# Disc length: 2664 seconds
#
# Revision: 0
# Processed by: cddbd v1.5.2PL0 Copyright (c) Steve Scherf et al.
# Submitted via: ExactAudioCopy v0.99pb5
#
DISCID=710a6609
DTITLE=Gerry Jablonski and The Electric Band - Gerry Jablonski and The
DTITLE=Electric Band
DYEAR=2010
DGENRE=Blues
TTITLE0=Breaking The Stones
TTITLE1=Black Rain
TTITLE2=Two Time Lover
TTITLE3=Love
TTITLE4=Cold Outside
TTITLE5=Blues Power
TTITLE6=Crime of The Century
TTITLE7=Undercover
TTITLE8=Every Dog Has It's Day
EXTD=
EXTT0=
EXTT1=
EXTT2=
EXTT3=
EXTT4=
EXTT5=
EXTT6=
EXTT7=
EXTT8=
PLAYORDER=
